<svg width="206" height="39" viewBox="0 0 206 39" fill="none" xmlns="http://www.w3.org/2000/svg">
<path d="M36.2071 29.5264H42.5966L21.2983 7.10205L0 29.5264H6.38948L21.2983 13.8045L36.2071 29.5264ZM10.6491 11.6118V7.10205H4.25966V18.3142L10.6491 11.6118Z" fill="#6D87CB"/>
<path d="M71.6301 8.87476L57.628 31H52.6024L47.4504 8.87476H52.7288L56.3005 24.6469L66.32 8.87476H71.6301ZM72.427 13.9952H77.3261L73.9441 31H69.045L72.427 13.9952ZM75.7141 11.6246C74.8713 11.6246 74.1759 11.3823 73.628 10.8976C73.1013 10.3919 72.8379 9.78084 72.8379 9.0644C72.8379 8.22154 73.1329 7.52617 73.7229 6.97831C74.3339 6.40937 75.1241 6.1249 76.0934 6.1249C76.9574 6.1249 77.6527 6.36723 78.1795 6.85188C78.7274 7.31545 79.0013 7.89492 79.0013 8.59029C79.0013 9.49637 78.6958 10.2339 78.0847 10.8028C77.4736 11.3507 76.6834 11.6246 75.7141 11.6246ZM83.1989 7.54724H88.1297L83.4518 31H78.521L83.1989 7.54724ZM92.7059 7.54724H97.6366L92.9587 31H88.028L92.7059 7.54724ZM118.175 13.9952L114.793 31H110.115L110.431 29.3248C109.019 30.6102 107.281 31.2529 105.216 31.2529C103.888 31.2529 102.666 30.9473 101.549 30.3362C100.432 29.7252 99.5367 28.8507 98.8624 27.7128C98.2092 26.5539 97.8826 25.1948 97.8826 23.6355C97.8826 21.7601 98.2935 20.0743 99.1153 18.5783C99.9582 17.0611 101.096 15.8811 102.529 15.0382C103.962 14.1743 105.542 13.7423 107.27 13.7423C109.883 13.7423 111.727 14.5957 112.801 16.3025L113.244 13.9952H118.175ZM106.733 27.1755C107.702 27.1755 108.566 26.9437 109.325 26.4801C110.083 25.9955 110.673 25.3317 111.095 24.4889C111.516 23.646 111.727 22.6767 111.727 21.581C111.727 20.422 111.379 19.5054 110.684 18.8311C110.009 18.1568 109.061 17.8197 107.839 17.8197C106.87 17.8197 106.006 18.062 105.247 18.5466C104.489 19.0102 103.899 19.6634 103.477 20.5063C103.056 21.3492 102.845 22.3185 102.845 23.4142C102.845 24.5731 103.182 25.4898 103.856 26.1641C104.552 26.8383 105.511 27.1755 106.733 27.1755ZM131.305 31.3793C129.093 31.3793 127.154 30.9789 125.49 30.1782C123.846 29.3775 122.582 28.2501 121.697 26.7962C120.812 25.3423 120.369 23.6671 120.369 21.7706C120.369 19.2631 120.938 17.0084 122.076 15.0066C123.235 12.9837 124.857 11.3928 126.943 10.2339C129.03 9.07494 131.421 8.49547 134.118 8.49547C136.099 8.49547 137.848 8.83261 139.365 9.50691C140.882 10.1812 142.031 11.1505 142.81 12.4148L139.112 15.4491C137.932 13.7212 136.152 12.8573 133.771 12.8573C132.148 12.8573 130.715 13.2366 129.472 13.9952C128.229 14.7537 127.26 15.7863 126.564 17.0927C125.89 18.3991 125.553 19.8531 125.553 21.4545C125.553 23.1613 126.09 24.5205 127.165 25.5319C128.26 26.5223 129.788 27.0175 131.748 27.0175C134.087 27.0175 136.046 26.1641 137.627 24.4572L140.661 27.5548C138.47 30.1045 135.351 31.3793 131.305 31.3793ZM150.188 16.018C150.925 15.2173 151.81 14.6379 152.843 14.2796C153.896 13.9214 155.129 13.7423 156.541 13.7423L155.656 18.2938C155.066 18.2516 154.686 18.2306 154.518 18.2306C153.022 18.2306 151.821 18.5993 150.915 19.3368C150.03 20.0743 149.429 21.2227 149.113 22.7821L147.469 31H142.539L145.921 13.9952H150.598L150.188 16.018ZM174.332 21.2333C174.332 22.0129 174.237 22.8769 174.047 23.8251H161.025C161.194 26.143 162.658 27.3019 165.418 27.3019C166.282 27.3019 167.104 27.165 167.884 26.891C168.685 26.6171 169.38 26.2273 169.97 25.7215L172.024 28.9771C171.076 29.7357 169.991 30.3046 168.769 30.6839C167.547 31.0632 166.261 31.2529 164.913 31.2529C163.164 31.2529 161.626 30.9473 160.298 30.3362C158.992 29.7041 157.98 28.8085 157.264 27.6496C156.568 26.4907 156.221 25.1526 156.221 23.6355C156.221 21.7601 156.642 20.0743 157.485 18.5783C158.349 17.0611 159.539 15.8811 161.057 15.0382C162.574 14.1743 164.302 13.7423 166.24 13.7423C167.884 13.7423 169.306 14.0478 170.507 14.6589C171.729 15.27 172.667 16.1445 173.32 17.2823C173.995 18.4202 174.332 19.7372 174.332 21.2333ZM166.019 17.4404C164.86 17.4404 163.88 17.7565 163.079 18.3886C162.279 18.9997 161.71 19.8531 161.373 20.9488H169.812C169.812 19.8531 169.464 18.9997 168.769 18.3886C168.095 17.7565 167.178 17.4404 166.019 17.4404ZM181.915 31.2529C180.44 31.2529 179.039 31.0948 177.712 30.7787C176.405 30.4416 175.383 30.0096 174.646 29.4828L176.542 25.9112C177.28 26.3958 178.175 26.7857 179.229 27.0807C180.303 27.3757 181.378 27.5232 182.453 27.5232C183.569 27.5232 184.402 27.3862 184.95 27.1123C185.497 26.8173 185.771 26.4064 185.771 25.8796C185.771 25.4582 185.529 25.1526 185.044 24.963C184.56 24.7733 183.78 24.5731 182.705 24.3624C181.483 24.1306 180.472 23.8778 179.671 23.6038C178.892 23.3299 178.207 22.8874 177.617 22.2763C177.048 21.6442 176.763 20.7908 176.763 19.7161C176.763 17.8407 177.543 16.3763 179.102 15.3227C180.683 14.2691 182.748 13.7423 185.297 13.7423C186.477 13.7423 187.626 13.8687 188.743 14.1216C189.859 14.3745 190.808 14.7221 191.587 15.1646L189.817 18.7679C188.426 17.904 186.751 17.472 184.792 17.472C183.717 17.472 182.895 17.63 182.326 17.9461C181.778 18.2622 181.504 18.6625 181.504 19.1472C181.504 19.5897 181.747 19.9163 182.231 20.127C182.716 20.3167 183.527 20.5274 184.665 20.7592C185.866 20.991 186.846 21.2438 187.605 21.5178C188.384 21.7706 189.059 22.2026 189.628 22.8137C190.196 23.4247 190.481 24.2571 190.481 25.3107C190.481 27.2071 189.68 28.6716 188.079 29.7041C186.498 30.7366 184.444 31.2529 181.915 31.2529ZM199.213 24.9946C199.17 25.1632 199.149 25.3949 199.149 25.6899C199.149 26.7857 199.75 27.3335 200.951 27.3335C201.604 27.3335 202.268 27.1334 202.942 26.733L203.669 30.2414C202.573 30.9157 201.162 31.2529 199.434 31.2529C197.832 31.2529 196.547 30.8314 195.578 29.9886C194.608 29.1457 194.124 27.9868 194.124 26.5117C194.124 26.0903 194.176 25.5951 194.282 25.0262L195.641 18.1674H193.017L193.776 14.3745H196.399L197.221 10.2339H202.152L201.33 14.3745H205.566L204.807 18.1674H200.572L199.213 24.9946Z" fill="#6D87CB"/>
</svg>
